<?xml version="1.0" encoding="UTF-8" standalone="no"?>
<!DOCTYPE svg PUBLIC "-//W3C//DTD SVG 1.1//EN"
 "http://www.w3.org/Graphics/SVG/1.1/DTD/svg11.dtd">
<!-- Generated by graphviz version 2.40.1 (20161225.0304)
 -->
<!-- Title: dependencies Pages: 1 -->
<svg width="1331pt" height="284pt"
 viewBox="0.00 0.00 1331.00 284.00" xmlns="http://www.w3.org/2000/svg" xmlns:xlink="http://www.w3.org/1999/xlink">
<g id="graph0" class="graph" transform="scale(1 1) rotate(0) translate(4 280)">
<title>dependencies</title>
<polygon fill="#ffffff" stroke="transparent" points="-4,4 -4,-280 1327,-280 1327,4 -4,4"/>
<text text-anchor="start" x="640.5091" y="-42.4" font-family="sans-serif" font-weight="bold" font-size="14.00" fill="#000000">Legend</text>
<polygon fill="#ffffb3" stroke="transparent" points="427.5,-10 427.5,-30 447.5,-30 447.5,-10 427.5,-10"/>
<text text-anchor="start" x="451.129" y="-15.4" font-family="sans-serif" font-size="14.00" fill="#000000"> &#160;Declarations</text>
<polygon fill="#8dd3c7" stroke="transparent" points="540.5,-10 540.5,-30 560.5,-30 560.5,-10 540.5,-10"/>
<text text-anchor="start" x="564.2251" y="-15.4" font-family="sans-serif" font-size="14.00" fill="#000000"> &#160;Module</text>
<polygon fill="#80b1d3" stroke="transparent" points="626.5,-10 626.5,-30 646.5,-30 646.5,-10 626.5,-10"/>
<text text-anchor="start" x="650.2812" y="-15.4" font-family="sans-serif" font-size="14.00" fill="#000000"> &#160;Bootstrap</text>
<polygon fill="#fdb462" stroke="transparent" points="723.5,-10 723.5,-30 743.5,-30 743.5,-10 723.5,-10"/>
<text text-anchor="start" x="747.1732" y="-15.4" font-family="sans-serif" font-size="14.00" fill="#000000"> &#160;Providers</text>
<polygon fill="#fb8072" stroke="transparent" points="819.5,-10 819.5,-30 839.5,-30 839.5,-10 819.5,-10"/>
<text text-anchor="start" x="843.2258" y="-15.4" font-family="sans-serif" font-size="14.00" fill="#000000"> &#160;Exports</text>
<g id="clust1" class="cluster">
<title>cluster_AppModule</title>
<polygon fill="none" stroke="#000000" stroke-dasharray="1,5" points="8,-70 8,-268 1315,-268 1315,-70 8,-70"/>
</g>
<g id="clust2" class="cluster">
<title>cluster_AppModule_declarations</title>
<polygon fill="none" stroke="#000000" points="585,-78 585,-130 1307,-130 1307,-78 585,-78"/>
</g>
<g id="clust8" class="cluster">
<title>cluster_AppModule_imports</title>
<polygon fill="none" stroke="#000000" points="433,-78 433,-130 577,-130 577,-78 433,-78"/>
</g>
<g id="clust10" class="cluster">
<title>cluster_AppModule_bootstrap</title>
<polygon fill="none" stroke="#000000" points="689,-208 689,-260 813,-260 813,-208 689,-208"/>
</g>
<g id="clust11" class="cluster">
<title>cluster_AppModule_providers</title>
<polygon fill="none" stroke="#000000" points="16,-78 16,-130 425,-130 425,-78 16,-78"/>
</g>
<!-- AppComponent -->
<g id="node1" class="node">
<title>AppComponent</title>
<polygon fill="#ffffb3" stroke="#000000" points="1298.9399,-122 1193.0601,-122 1193.0601,-86 1298.9399,-86 1298.9399,-122"/>
<text text-anchor="middle" x="1246" y="-99.8" font-family="Times,serif" font-size="14.00" fill="#000000">AppComponent</text>
</g>
<!-- AppModule -->
<g id="node6" class="node">
<title>AppModule</title>
<polygon fill="#8dd3c7" stroke="#000000" points="792.6571,-187 789.6571,-191 768.6571,-191 765.6571,-187 709.3429,-187 709.3429,-151 792.6571,-151 792.6571,-187"/>
<text text-anchor="middle" x="751" y="-164.8" font-family="Times,serif" font-size="14.00" fill="#000000">AppModule</text>
</g>
<!-- AppComponent&#45;&gt;AppModule -->
<g id="edge1" class="edge">
<title>AppComponent&#45;&gt;AppModule</title>
<path fill="none" stroke="#000000" d="M1246,-122.2921C1246,-144.2057 1246,-178 1246,-178 1246,-178 802.7768,-178 802.7768,-178"/>
<polygon fill="#000000" stroke="#000000" points="802.7768,-174.5001 792.7768,-178 802.7768,-181.5001 802.7768,-174.5001"/>
</g>
<!-- CaptureComponent -->
<g id="node2" class="node">
<title>CaptureComponent</title>
<polygon fill="#ffffb3" stroke="#000000" points="1174.6499,-122 1049.3501,-122 1049.3501,-86 1174.6499,-86 1174.6499,-122"/>
<text text-anchor="middle" x="1112" y="-99.8" font-family="Times,serif" font-size="14.00" fill="#000000">CaptureComponent</text>
</g>
<!-- CaptureComponent&#45;&gt;AppModule -->
<g id="edge2" class="edge">
<title>CaptureComponent&#45;&gt;AppModule</title>
<path fill="none" stroke="#000000" d="M1112,-122.1061C1112,-141.3391 1112,-169 1112,-169 1112,-169 802.764,-169 802.764,-169"/>
<polygon fill="#000000" stroke="#000000" points="802.764,-165.5001 792.764,-169 802.7639,-172.5001 802.764,-165.5001"/>
</g>
<!-- DialogContent -->
<g id="node3" class="node">
<title>DialogContent</title>
<polygon fill="#ffffb3" stroke="#000000" points="1031.4358,-122 932.5642,-122 932.5642,-86 1031.4358,-86 1031.4358,-122"/>
<text text-anchor="middle" x="982" y="-99.8" font-family="Times,serif" font-size="14.00" fill="#000000">DialogContent</text>
</g>
<!-- DialogContent&#45;&gt;AppModule -->
<g id="edge3" class="edge">
<title>DialogContent&#45;&gt;AppModule</title>
<path fill="none" stroke="#000000" d="M982,-122.027C982,-138.3976 982,-160 982,-160 982,-160 802.8324,-160 802.8324,-160"/>
<polygon fill="#000000" stroke="#000000" points="802.8324,-156.5001 792.8324,-160 802.8323,-163.5001 802.8324,-156.5001"/>
</g>
<!-- ImageGalleryComponent -->
<g id="node4" class="node">
<title>ImageGalleryComponent</title>
<polygon fill="#ffffb3" stroke="#000000" points="915.2907,-122 756.7093,-122 756.7093,-86 915.2907,-86 915.2907,-122"/>
<text text-anchor="middle" x="836" y="-99.8" font-family="Times,serif" font-size="14.00" fill="#000000">ImageGalleryComponent</text>
</g>
<!-- ImageGalleryComponent&#45;&gt;AppModule -->
<g id="edge4" class="edge">
<title>ImageGalleryComponent&#45;&gt;AppModule</title>
<path fill="none" stroke="#000000" d="M774.8415,-122.1061C774.8415,-122.1061 774.8415,-140.991 774.8415,-140.991"/>
<polygon fill="#000000" stroke="#000000" points="771.3416,-140.9909 774.8415,-150.991 778.3416,-140.991 771.3416,-140.9909"/>
</g>
<!-- ImageSlideComponent -->
<g id="node5" class="node">
<title>ImageSlideComponent</title>
<polygon fill="#ffffb3" stroke="#000000" points="738.5912,-122 593.4088,-122 593.4088,-86 738.5912,-86 738.5912,-122"/>
<text text-anchor="middle" x="666" y="-99.8" font-family="Times,serif" font-size="14.00" fill="#000000">ImageSlideComponent</text>
</g>
<!-- ImageSlideComponent&#45;&gt;AppModule -->
<g id="edge5" class="edge">
<title>ImageSlideComponent&#45;&gt;AppModule</title>
<path fill="none" stroke="#000000" d="M723.8587,-122.1061C723.8587,-122.1061 723.8587,-140.991 723.8587,-140.991"/>
<polygon fill="#000000" stroke="#000000" points="720.3588,-140.9909 723.8587,-150.991 727.3588,-140.991 720.3588,-140.9909"/>
</g>
<!-- AppComponent  -->
<g id="node8" class="node">
<title>AppComponent </title>
<polygon fill="#80b1d3" stroke="#000000" points="805.439,-252 696.561,-252 696.561,-216 805.439,-216 805.439,-252"/>
<text text-anchor="middle" x="751" y="-229.8" font-family="Times,serif" font-size="14.00" fill="#000000">AppComponent </text>
</g>
<!-- AppModule&#45;&gt;AppComponent  -->
<g id="edge7" class="edge">
<title>AppModule&#45;&gt;AppComponent </title>
<path fill="none" stroke="#000000" stroke-dasharray="1,5" d="M751,-187.1061C751,-187.1061 751,-205.991 751,-205.991"/>
<polygon fill="#000000" stroke="#000000" points="747.5001,-205.9909 751,-215.991 754.5001,-205.991 747.5001,-205.9909"/>
</g>
<!-- AppRoutingModule -->
<g id="node7" class="node">
<title>AppRoutingModule</title>
<polygon fill="#8dd3c7" stroke="#000000" points="569.2744,-122 566.2744,-126 545.2744,-126 542.2744,-122 440.7256,-122 440.7256,-86 569.2744,-86 569.2744,-122"/>
<text text-anchor="middle" x="505" y="-99.8" font-family="Times,serif" font-size="14.00" fill="#000000">AppRoutingModule</text>
</g>
<!-- AppRoutingModule&#45;&gt;AppModule -->
<g id="edge6" class="edge">
<title>AppRoutingModule&#45;&gt;AppModule</title>
<path fill="none" stroke="#000000" d="M505,-122.027C505,-138.3976 505,-160 505,-160 505,-160 699.2695,-160 699.2695,-160"/>
<polygon fill="#000000" stroke="#000000" points="699.2695,-163.5001 709.2695,-160 699.2694,-156.5001 699.2695,-163.5001"/>
</g>
<!-- OxsEyeLogger -->
<g id="node9" class="node">
<title>OxsEyeLogger</title>
<ellipse fill="#fdb462" stroke="#000000" cx="348" cy="-104" rx="69.4858" ry="18"/>
<text text-anchor="middle" x="348" y="-99.8" font-family="Times,serif" font-size="14.00" fill="#000000">OxsEyeLogger</text>
</g>
<!-- OxsEyeLogger&#45;&gt;AppModule -->
<g id="edge8" class="edge">
<title>OxsEyeLogger&#45;&gt;AppModule</title>
<path fill="none" stroke="#000000" d="M348,-122.1061C348,-141.3391 348,-169 348,-169 348,-169 699.0124,-169 699.0124,-169"/>
<polygon fill="#000000" stroke="#000000" points="699.0124,-172.5001 709.0124,-169 699.0124,-165.5001 699.0124,-172.5001"/>
</g>
<!-- TransformedImageProvider -->
<g id="node10" class="node">
<title>TransformedImageProvider</title>
<ellipse fill="#fdb462" stroke="#000000" cx="142" cy="-104" rx="118.0792" ry="18"/>
<text text-anchor="middle" x="142" y="-99.8" font-family="Times,serif" font-size="14.00" fill="#000000">TransformedImageProvider</text>
</g>
<!-- TransformedImageProvider&#45;&gt;AppModule -->
<g id="edge9" class="edge">
<title>TransformedImageProvider&#45;&gt;AppModule</title>
<path fill="none" stroke="#000000" d="M142,-122.2921C142,-144.2057 142,-178 142,-178 142,-178 699.141,-178 699.141,-178"/>
<polygon fill="#000000" stroke="#000000" points="699.141,-181.5001 709.141,-178 699.1409,-174.5001 699.141,-181.5001"/>
</g>
</g>
</svg>
